<?xml version="1.0" standalone="no"?>
<!DOCTYPE svg PUBLIC "-//W3C//DTD SVG 20010904//EN"
 "http://www.w3.org/TR/2001/REC-SVG-20010904/DTD/svg10.dtd">
<svg version="1.0" xmlns="http://www.w3.org/2000/svg"
 width="700.000000pt" height="700.000000pt" viewBox="0 0 700.000000 700.000000"
 preserveAspectRatio="xMidYMid meet">
<metadata>
Created by potrace 1.14, written by Peter Selinger 2001-2017
</metadata>
<g transform="translate(0.000000,700.000000) scale(0.100000,-0.100000)"
fill="#000000" stroke="none">
<path d="M2083 6979 c-23 -11 -52 -36 -63 -54 -24 -39 -27 -113 -5 -155 18
-35 69 -75 108 -84 24 -6 27 -11 27 -50 l0 -44 -65 -4 c-45 -3 -73 -10 -92
-24 -97 -72 -98 -196 -2 -267 17 -12 50 -21 93 -24 l66 -6 0 -42 0 -43 -105
-4 c-86 -3 -109 -7 -132 -24 -98 -73 -98 -195 0 -268 24 -17 46 -22 133 -24
l104 -4 0 -43 0 -43 -137 -4 c-116 -2 -143 -6 -172 -23 -51 -30 -74 -67 -79
-127 -3 -44 0 -59 20 -87 48 -70 64 -76 224 -79 l144 -3 0 -44 0 -43 -177 -4
c-142 -3 -184 -7 -210 -21 -76 -40 -107 -150 -61 -217 13 -19 39 -45 57 -57
32 -22 43 -23 212 -23 l179 0 0 -750 0 -750 -299 0 c-293 0 -299 0 -331 -22
-18 -13 -43 -36 -54 -51 l-21 -28 0 -1532 0 -1532 28 -56 c70 -143 253 -244
532 -295 123 -22 457 -25 580 -6 311 51 517 164 574 316 l21 57 0 1515 c0
1678 5 1558 -64 1607 -30 21 -39 22 -338 25 l-308 3 0 749 0 750 178 0 c153 0
182 2 212 19 112 60 111 217 -3 278 -26 14 -66 18 -209 21 l-178 4 0 44 0 44
135 0 c116 0 142 3 175 20 97 49 115 172 37 248 -45 44 -81 52 -224 52 l-123
0 0 45 0 45 93 0 c76 0 101 4 137 23 116 58 113 220 -4 276 -33 17 -62 21
-134 21 l-92 0 0 45 0 45 53 0 c76 0 136 32 165 90 12 24 22 56 22 70 0 14
-10 46 -22 70 -29 58 -89 90 -165 90 l-53 0 0 45 c0 43 1 44 39 55 75 20 130
102 118 177 -8 46 -51 102 -93 119 -25 10 -83 14 -221 14 -171 0 -192 -2 -230
-21z"/>
<path d="M4246 5990 c-41 -13 -94 -68 -106 -110 -5 -19 -10 -117 -10 -216 l0
-181 -31 -7 c-41 -8 -86 -41 -104 -76 -21 -42 -19 -118 5 -158 23 -37 75 -72
108 -72 21 0 22 -3 22 -99 l0 -99 -105 -4 c-115 -4 -139 -14 -182 -78 l-23
-33 0 -2233 0 -2233 21 -56 c25 -68 99 -147 182 -194 169 -96 453 -149 737
-138 401 17 676 130 767 316 l28 56 3 2230 2 2230 -22 45 c-34 67 -86 90 -205
90 l-94 0 3 97 3 97 30 6 c76 16 131 91 122 167 -3 25 -14 57 -24 72 -27 35
-81 71 -109 71 l-23 0 -3 209 c-3 234 -6 243 -79 286 -32 19 -54 20 -459 22
-234 1 -438 -2 -454 -7z"/>
</g>
</svg>
